<?xml version="1.0" encoding="UTF-8" standalone="no"?>
<!DOCTYPE svg PUBLIC "-//W3C//DTD SVG 1.1//EN"
 "http://www.w3.org/Graphics/SVG/1.1/DTD/svg11.dtd">
<!-- Generated by graphviz version 2.40.1 (20161225.0304)
 -->
<!-- Title: dependencies Pages: 1 -->
<svg width="504pt" height="284pt"
 viewBox="0.00 0.00 504.00 284.00" xmlns="http://www.w3.org/2000/svg" xmlns:xlink="http://www.w3.org/1999/xlink">
<g id="graph0" class="graph" transform="scale(1 1) rotate(0) translate(4 280)">
<title>dependencies</title>
<polygon fill="#ffffff" stroke="transparent" points="-4,4 -4,-280 500,-280 500,4 -4,4"/>
<text text-anchor="start" x="227.0091" y="-42.4" font-family="sans-serif" font-weight="bold" font-size="14.00" fill="#000000">Legend</text>
<polygon fill="#ffffb3" stroke="transparent" points="14,-10 14,-30 34,-30 34,-10 14,-10"/>
<text text-anchor="start" x="37.629" y="-15.4" font-family="sans-serif" font-size="14.00" fill="#000000"> &#160;Declarations</text>
<polygon fill="#8dd3c7" stroke="transparent" points="127,-10 127,-30 147,-30 147,-10 127,-10"/>
<text text-anchor="start" x="150.7251" y="-15.4" font-family="sans-serif" font-size="14.00" fill="#000000"> &#160;Module</text>
<polygon fill="#80b1d3" stroke="transparent" points="213,-10 213,-30 233,-30 233,-10 213,-10"/>
<text text-anchor="start" x="236.7812" y="-15.4" font-family="sans-serif" font-size="14.00" fill="#000000"> &#160;Bootstrap</text>
<polygon fill="#fdb462" stroke="transparent" points="310,-10 310,-30 330,-30 330,-10 310,-10"/>
<text text-anchor="start" x="333.6732" y="-15.4" font-family="sans-serif" font-size="14.00" fill="#000000"> &#160;Providers</text>
<polygon fill="#fb8072" stroke="transparent" points="406,-10 406,-30 426,-30 426,-10 406,-10"/>
<text text-anchor="start" x="429.7258" y="-15.4" font-family="sans-serif" font-size="14.00" fill="#000000"> &#160;Exports</text>
<g id="clust1" class="cluster">
<title>cluster_AppModule</title>
<polygon fill="none" stroke="#000000" stroke-dasharray="1,5" points="113.5,-70 113.5,-268 382.5,-268 382.5,-70 113.5,-70"/>
</g>
<g id="clust2" class="cluster">
<title>cluster_AppModule_declarations</title>
<polygon fill="none" stroke="#000000" points="121.5,-78 121.5,-130 374.5,-130 374.5,-78 121.5,-78"/>
</g>
<g id="clust8" class="cluster">
<title>cluster_AppModule_bootstrap</title>
<polygon fill="none" stroke="#000000" points="206.5,-208 206.5,-260 294.5,-260 294.5,-208 206.5,-208"/>
</g>
<!-- MyApp -->
<g id="node1" class="node">
<title>MyApp</title>
<polygon fill="#ffffb3" stroke="#000000" points="366.0529,-122 306.9471,-122 306.9471,-86 366.0529,-86 366.0529,-122"/>
<text text-anchor="middle" x="336.5" y="-99.8" font-family="Times,serif" font-size="14.00" fill="#000000">MyApp</text>
</g>
<!-- AppModule -->
<g id="node4" class="node">
<title>AppModule</title>
<polygon fill="#8dd3c7" stroke="#000000" points="292.1571,-187 289.1571,-191 268.1571,-191 265.1571,-187 208.8429,-187 208.8429,-151 292.1571,-151 292.1571,-187"/>
<text text-anchor="middle" x="250.5" y="-164.8" font-family="Times,serif" font-size="14.00" fill="#000000">AppModule</text>
</g>
<!-- MyApp&#45;&gt;AppModule -->
<g id="edge1" class="edge">
<title>MyApp&#45;&gt;AppModule</title>
<path fill="none" stroke="#000000" d="M336.5,-122.1061C336.5,-141.3391 336.5,-169 336.5,-169 336.5,-169 302.2404,-169 302.2404,-169"/>
<polygon fill="#000000" stroke="#000000" points="302.2404,-165.5001 292.2404,-169 302.2404,-172.5001 302.2404,-165.5001"/>
</g>
<!-- HomePage -->
<g id="node2" class="node">
<title>HomePage</title>
<polygon fill="#ffffb3" stroke="#000000" points="289.4248,-122 211.5752,-122 211.5752,-86 289.4248,-86 289.4248,-122"/>
<text text-anchor="middle" x="250.5" y="-99.8" font-family="Times,serif" font-size="14.00" fill="#000000">HomePage</text>
</g>
<!-- HomePage&#45;&gt;AppModule -->
<g id="edge2" class="edge">
<title>HomePage&#45;&gt;AppModule</title>
<path fill="none" stroke="#000000" d="M250.5,-122.1061C250.5,-122.1061 250.5,-140.991 250.5,-140.991"/>
<polygon fill="#000000" stroke="#000000" points="247.0001,-140.9909 250.5,-150.991 254.0001,-140.991 247.0001,-140.9909"/>
</g>
<!-- ListPage -->
<g id="node3" class="node">
<title>ListPage</title>
<polygon fill="#ffffb3" stroke="#000000" points="193.9902,-122 129.0098,-122 129.0098,-86 193.9902,-86 193.9902,-122"/>
<text text-anchor="middle" x="161.5" y="-99.8" font-family="Times,serif" font-size="14.00" fill="#000000">ListPage</text>
</g>
<!-- ListPage&#45;&gt;AppModule -->
<g id="edge3" class="edge">
<title>ListPage&#45;&gt;AppModule</title>
<path fill="none" stroke="#000000" d="M161.5,-122.1061C161.5,-141.3391 161.5,-169 161.5,-169 161.5,-169 198.6061,-169 198.6061,-169"/>
<polygon fill="#000000" stroke="#000000" points="198.6061,-172.5001 208.6061,-169 198.6061,-165.5001 198.6061,-172.5001"/>
</g>
<!-- IonicApp  -->
<g id="node5" class="node">
<title>IonicApp </title>
<polygon fill="#80b1d3" stroke="#000000" points="286.8734,-252 214.1266,-252 214.1266,-216 286.8734,-216 286.8734,-252"/>
<text text-anchor="middle" x="250.5" y="-229.8" font-family="Times,serif" font-size="14.00" fill="#000000">IonicApp </text>
</g>
<!-- AppModule&#45;&gt;IonicApp  -->
<g id="edge4" class="edge">
<title>AppModule&#45;&gt;IonicApp </title>
<path fill="none" stroke="#000000" stroke-dasharray="1,5" d="M250.5,-187.1061C250.5,-187.1061 250.5,-205.991 250.5,-205.991"/>
<polygon fill="#000000" stroke="#000000" points="247.0001,-205.9909 250.5,-215.991 254.0001,-205.991 247.0001,-205.9909"/>
</g>
</g>
</svg>
